<?xml version="1.0" encoding="utf-8"?>
<!-- Generator: Adobe Illustrator 19.0.0, SVG Export Plug-In . SVG Version: 6.00 Build 0)  -->
<svg version="1.1" id="Layer_1" xmlns="http://www.w3.org/2000/svg" xmlns:xlink="http://www.w3.org/1999/xlink" x="0px" y="0px"
	 viewBox="-478 942.3 121.1 36.7" style="enable-background:new -478 942.3 121.1 36.7;" xml:space="preserve">
<style type="text/css">
	.st0{fill:#2ED15A;}
	.st1{fill:#FFFFFF;}
	.st2{font-family:'SegoeUI';}
	.st3{font-size:17px;}
</style>
<g id="Group_5539" transform="translate(2232.937 -2718.366)">
	<path id="Rectangle_1030" class="st0" d="M-2704.9,3660.6h109.1c3.3,0,6,2.7,6,6v24.7c0,3.3-2.7,6-6,6h-109.1c-3.3,0-6-2.7-6-6
		v-24.7C-2710.9,3663.3-2708.3,3660.6-2704.9,3660.6z"/>
	<text transform="matrix(1 0 0 1 -2670.874 3685.6328)" class="st1 st2 st3">Care-Line</text>
	<path id="XMLID_19_" class="st1" d="M-2679.8,3673.7c-0.4-0.9-1-1.7-1.7-2.3c-0.8-0.6-1.6-1.1-2.5-1.4c-1-0.3-2-0.5-3.1-0.5h-8.8
		c-1,0-1.9,0.8-1.9,1.9v11.8c0,0.5-0.1,0.9-0.2,1.4l-1.3,3.9c-0.1,0.2,0,0.5,0.3,0.6c0.1,0,0.2,0,0.2,0l4.9-1
		c0.3-0.1,0.6-0.1,0.8-0.1h5.9c1,0,2.1-0.1,3.1-0.5c0.9-0.3,1.8-0.8,2.5-1.4c0.7-0.6,1.3-1.4,1.7-2.3c0.4-0.9,0.6-1.9,0.6-2.9v-4.3
		C-2679.2,3675.6-2679.4,3674.6-2679.8,3673.7z M-2681.6,3680.8c0,0.7-0.1,1.4-0.4,2c-0.3,0.6-0.7,1.1-1.1,1.5
		c-0.5,0.4-1.1,0.8-1.8,1c-0.8,0.2-1.6,0.3-2.3,0.3h-8.2v-9.1h2.3v7.1h5.9c0.9,0.1,1.8-0.2,2.5-0.7c0.6-0.5,0.9-1.3,0.9-2.1v-4.1
		c0-0.4-0.1-0.8-0.2-1.2c-0.1-0.3-0.4-0.7-0.7-0.9c-0.3-0.3-0.7-0.5-1.1-0.6c-0.5-0.1-0.9-0.2-1.4-0.2h-8.2v-2h8.2
		c0.8,0,1.6,0.1,2.3,0.3c0.7,0.2,1.3,0.5,1.8,1c0.5,0.4,0.9,0.9,1.1,1.5c0.3,0.6,0.4,1.3,0.4,2L-2681.6,3680.8L-2681.6,3680.8z"/>
</g>
</svg>
