<?xml version="1.0" encoding="utf-8"?>
<!-- Generator: Adobe Illustrator 19.0.0, SVG Export Plug-In . SVG Version: 6.00 Build 0)  -->
<svg version="1.1" id="Group_5548" xmlns="http://www.w3.org/2000/svg" xmlns:xlink="http://www.w3.org/1999/xlink" x="0px" y="0px"
	 viewBox="-509 931 60 60" style="enable-background:new -509 931 60 60;" xml:space="preserve">
<style type="text/css">
	.st0{fill:#959595;}
</style>
<path class="st0" d="M-458,931h-42c-5,0-9,4-9,9v42c0,5,4,9,9,9h42c0,0,0,0,0,0c5,0,9-4,9-9v-42C-449,935-453,931-458,931z
	 M-464.5,965.5c0,1.4-0.3,2.9-0.8,4.2c-0.5,1.2-1.3,2.3-2.4,3.2c-1.1,0.9-2.3,1.6-3.7,2c-1.6,0.5-3.2,0.8-4.9,0.7h-17.2v-18.9h4.8
	v14.7h12.4c1.8,0.1,3.7-0.4,5.2-1.5c1.2-1.1,1.9-2.7,1.8-4.4v-8.6c0-0.9-0.1-1.7-0.4-2.5c-0.3-0.7-0.8-1.4-1.4-1.9
	c-0.7-0.5-1.4-0.9-2.2-1.2c-0.9-0.3-1.9-0.4-2.9-0.4h-17.2v-4.1h17.3c1.7,0,3.3,0.2,4.9,0.7c1.4,0.4,2.6,1.1,3.7,2
	c1,0.9,1.8,2,2.4,3.2c0.6,1.3,0.9,2.7,0.8,4.2V965.5z"/>
</svg>
